<svg width="17" height="17" viewBox="0 0 17 17" fill="none" xmlns="http://www.w3.org/2000/svg">
<path d="M5.20149 4.0029C5.18161 4.23934 4.83756 4.29912 4.7269 4.08537L4.13104 2.93455C4.0925 2.85998 4.01398 2.81015 3.92518 2.8037L2.55398 2.70423C2.29925 2.68577 2.23486 2.3664 2.46514 2.26366L3.70477 1.71052C3.78504 1.67469 3.83883 1.60187 3.84571 1.51941L3.95288 0.246435C3.97276 0.00999554 4.31681 -0.049787 4.42747 0.163969L5.02333 1.31479C5.06187 1.38936 5.14029 1.4392 5.22919 1.44564L6.60039 1.54511C6.85512 1.56357 6.91951 1.88294 6.68922 1.98568L5.4496 2.53881C5.36923 2.57466 5.31554 2.64746 5.30866 2.72993L5.20149 4.0029Z" fill="white"/>
<path d="M1.26506 4.87143C1.23186 4.98593 1.05685 4.98593 1.02365 4.87143L0.844836 4.25496C0.833285 4.21502 0.799634 4.18383 0.756631 4.17307L0.0925888 4.00709C-0.0307691 3.97626 -0.0307691 3.8138 0.0925888 3.78297L0.756631 3.61699C0.799634 3.60624 0.833285 3.57504 0.844836 3.5351L1.02365 2.91863C1.05685 2.80413 1.23186 2.80413 1.26506 2.91863L1.44387 3.5351C1.45542 3.57504 1.48903 3.60624 1.53208 3.61699L2.19612 3.78297C2.31948 3.8138 2.31948 3.97626 2.19612 4.00709L1.53208 4.17307C1.48903 4.18383 1.45542 4.21502 1.44387 4.25496L1.26506 4.87143Z" fill="white"/>
<path d="M3.55345 8.41233C3.52024 8.52683 3.34523 8.52683 3.31203 8.41233L3.13322 7.79586C3.12167 7.75592 3.08802 7.72472 3.04501 7.71397L2.38097 7.54799C2.25761 7.51716 2.25761 7.3547 2.38097 7.32387L3.04501 7.15789C3.08802 7.14713 3.12167 7.11594 3.13322 7.076L3.31203 6.45953C3.34523 6.34503 3.52024 6.34503 3.55345 6.45953L3.73226 7.076C3.74381 7.11594 3.77741 7.14713 3.82046 7.15789L4.4845 7.32387C4.60786 7.3547 4.60786 7.51716 4.4845 7.54799L3.82046 7.71397C3.77741 7.72472 3.74381 7.75592 3.73226 7.79586L3.55345 8.41233Z" fill="white"/>
<path d="M1.60625 7.02455C1.58412 7.10088 1.46745 7.10088 1.44531 7.02455L1.3261 6.61356C1.3184 6.58694 1.29597 6.56614 1.2673 6.55897L0.824605 6.44832C0.742367 6.42776 0.742367 6.31946 0.824605 6.29891L1.2673 6.18825C1.29597 6.18108 1.3184 6.16028 1.3261 6.13366L1.44531 5.72268C1.46745 5.64634 1.58412 5.64634 1.60625 5.72268L1.72546 6.13366C1.73316 6.16028 1.75556 6.18108 1.78427 6.18825L2.22696 6.29891C2.3092 6.31946 2.3092 6.42776 2.22696 6.44832L1.78427 6.55897C1.75556 6.56614 1.73316 6.58694 1.72546 6.61356L1.60625 7.02455Z" fill="white"/>
<path d="M6.94616 5.60813C6.92402 5.68447 6.80735 5.68447 6.78521 5.60813L6.666 5.19715C6.6583 5.17053 6.63587 5.14973 6.6072 5.14256L6.16451 5.03191C6.08227 5.01135 6.08227 4.90305 6.16451 4.8825L6.6072 4.77184C6.63587 4.76467 6.6583 4.74387 6.666 4.71725L6.78521 4.30627C6.80735 4.22993 6.92402 4.22993 6.94616 4.30627L7.06536 4.71725C7.07306 4.74387 7.09546 4.76467 7.12417 4.77184L7.56686 4.8825C7.6491 4.90305 7.6491 5.01135 7.56686 5.03191L7.12417 5.14256C7.09546 5.14973 7.07306 5.17053 7.06536 5.19715L6.94616 5.60813Z" fill="white"/>
<path d="M14.4943 14.1638L13.7314 14.872M3.83674 4.76465L16.219 15.3016C16.5263 15.5632 16.5368 16.0098 16.242 16.2836V16.2836C15.9482 16.5562 15.4713 16.5498 15.189 16.2669C10.9138 11.9821 3.38638 4.41346 3.83674 4.76465Z" stroke="white"/>
</svg>
